<?xml version="1.0" standalone="no"?>
<!DOCTYPE svg PUBLIC "-//W3C//DTD SVG 20010904//EN"
 "http://www.w3.org/TR/2001/REC-SVG-20010904/DTD/svg10.dtd">
<svg version="1.0" xmlns="http://www.w3.org/2000/svg"
 width="256.000000pt" height="171.000000pt" viewBox="0 0 256.000000 171.000000"
 preserveAspectRatio="xMidYMid meet">

<g transform="translate(0.000000,171.000000) scale(0.100000,-0.100000)"
fill="#000000" stroke="none">
<path d="M1120 1224 c-137 -31 -381 -114 -387 -131 -5 -13 7 -114 23 -192 7
-31 6 -33 -13 -22 -22 11 -43 98 -43 174 0 44 -17 57 -30 23 l-10 -26 -165 0
c-172 0 -176 -1 -154 -43 29 -55 36 -57 193 -50 l146 6 0 -31 0 -32 -141 0
-141 0 19 -32 19 -33 128 -3 c143 -3 161 -10 161 -59 l0 -33 -102 0 c-57 0
-103 -4 -103 -8 0 -5 12 -19 26 -33 22 -21 38 -25 116 -29 49 -3 92 -2 95 3 2
4 15 7 29 7 13 0 24 4 24 10 0 5 6 7 14 4 18 -7 59 -91 51 -104 -16 -26 19
-49 137 -88 206 -69 248 -76 332 -57 39 9 126 34 194 57 l123 41 25 48 c13 27
30 48 36 46 7 -1 21 15 32 35 22 40 39 44 44 12 2 -17 9 -19 85 -14 84 5 137
27 137 56 0 11 -21 14 -100 14 -55 0 -100 2 -100 4 0 3 4 16 10 30 9 25 13 26
94 26 61 0 87 4 96 14 6 8 29 16 51 18 33 2 44 9 60 36 l21 32 -141 0 -141 0
0 31 0 32 152 -4 152 -4 23 40 c12 22 23 43 23 48 0 4 -76 7 -170 7 l-170 0 0
30 c0 19 -5 30 -14 30 -9 0 -15 -22 -20 -77 -8 -98 -22 -149 -43 -157 -13 -5
-15 -1 -9 31 17 102 27 184 22 192 -9 14 -277 100 -394 127 -131 29 -169 29
-302 -2z m-194 -201 l-6 -28 15 28 c11 18 24 27 41 27 l26 0 -23 -37 c-17 -27
-23 -52 -23 -97 -1 -54 -3 -61 -21 -61 -15 0 -21 8 -25 35 l-6 35 -7 -37 c-6
-28 -13 -38 -27 -38 -24 0 -25 10 -4 103 21 98 21 97 45 97 18 0 20 -4 15 -27z
m176 7 c6 -10 5 -26 -3 -45 -6 -16 -13 -49 -15 -73 -4 -52 -9 -62 -36 -62 -18
0 -20 4 -15 48 6 49 5 48 -19 -35 -4 -15 -44 -18 -44 -4 0 12 29 150 36 174 5
14 14 17 46 15 23 -2 45 -10 50 -18z m57 -67 c-24 -109 -25 -113 -43 -113 -22
0 -26 13 -16 51 5 19 14 60 20 92 10 50 14 57 35 57 l23 0 -19 -87z m122 60
l2 -28 4 28 c3 20 10 27 27 27 l23 0 -18 -91 c-22 -105 -24 -109 -50 -109 -16
0 -19 7 -20 43 l-1 42 -10 -42 c-5 -25 -15 -43 -23 -43 -21 0 -25 14 -15 51 5
19 14 60 20 92 10 51 14 57 36 57 19 0 24 -5 25 -27z m154 -65 c-8 -105 -9
-108 -36 -108 -14 0 -19 7 -19 28 l-1 27 -15 -28 c-10 -18 -22 -27 -32 -25
-20 5 -21 1 13 111 l26 87 36 0 36 0 -8 -92z m96 70 l2 -23 4 23 c5 27 43 31
43 5 0 -10 -9 -54 -18 -98 -16 -69 -21 -80 -41 -83 -16 -3 -24 2 -28 19 l-6
23 -8 -22 c-9 -23 -39 -31 -39 -9 0 10 8 45 35 165 4 15 13 22 30 22 19 0 25
-6 26 -22z m159 7 c18 -21 -14 -161 -40 -175 -27 -14 -56 -12 -70 5 -15 18 2
125 26 163 17 26 65 30 84 7z m-901 -225 c0 -10 -3 -8 -9 5 -12 27 -12 43 0
25 5 -8 9 -22 9 -30z m983 15 c-2 -14 -8 -22 -13 -19 -5 3 -5 14 1 25 14 26
18 24 12 -6z m-465 -102 c-2 -16 -4 -5 -4 22 0 28 2 40 4 28 2 -13 2 -35 0
-50z m43 22 c0 -25 -4 -45 -10 -45 -5 0 -10 20 -10 45 0 25 5 45 10 45 6 0 10
-20 10 -45z m-240 -5 c0 -36 -2 -40 -25 -40 -22 0 -25 4 -25 40 0 36 3 40 25
40 23 0 25 -4 25 -40z m105 -9 c1 -28 -3 -37 -12 -34 -13 5 -18 64 -6 76 11
12 17 -2 18 -42z m-37 12 c2 -7 -3 -13 -12 -13 -8 0 -18 -5 -22 -12 -5 -8 -2
-9 9 -5 9 3 19 2 22 -2 3 -5 -1 -11 -8 -13 -23 -9 -37 4 -37 34 0 24 4 29 22
26 12 -2 23 -9 26 -15z m102 -13 c0 -25 -4 -30 -25 -30 -16 0 -25 6 -25 15 0
18 16 20 24 3 3 -7 4 -4 3 7 -1 11 -6 23 -12 27 -5 4 0 8 13 8 18 0 22 -6 22
-30z m100 0 c0 -16 -4 -30 -10 -30 -5 0 -10 14 -10 30 0 17 5 30 10 30 6 0 10
-13 10 -30z m70 0 c0 -16 -4 -30 -10 -30 -5 0 -10 11 -10 25 0 34 -18 32 -23
-2 -4 -26 -4 -26 -6 5 -1 28 2 32 24 32 21 0 25 -5 25 -30z m68 -6 c-4 -43
-30 -67 -50 -45 -11 12 -10 13 4 8 10 -3 20 -2 23 2 2 5 -4 11 -15 14 -11 3
-20 14 -20 24 0 26 8 33 37 33 22 0 24 -4 21 -36z m-370 -84 c5 -13 3 -13 -11
-1 -10 7 -17 9 -17 3 0 -5 7 -15 15 -22 25 -21 19 -50 -10 -50 -16 0 -25 6
-25 16 0 13 3 14 13 5 8 -6 17 -8 21 -4 4 4 -3 15 -15 24 -15 11 -20 22 -16
33 8 21 38 18 45 -4z m229 -47 c-2 -16 -4 -5 -4 22 0 28 2 40 4 28 2 -13 2
-35 0 -50z m-186 -13 c5 0 9 14 9 30 0 17 5 30 10 30 6 0 10 -16 10 -36 0 -33
-2 -35 -27 -32 -30 3 -41 27 -27 56 6 13 9 9 12 -15 2 -18 7 -33 13 -33z m97
27 c3 -22 -1 -30 -17 -34 -12 -3 -21 -9 -21 -14 0 -5 -4 -9 -10 -9 -11 0 -14
73 -3 84 17 17 48 0 51 -27z m62 -2 c0 -24 -5 -35 -15 -35 -8 0 -15 -4 -15
-10 0 -5 -4 -10 -10 -10 -5 0 -10 20 -10 45 0 41 2 45 25 45 22 0 25 -4 25
-35z m83 16 c3 13 9 20 12 17 10 -9 -17 -88 -29 -88 -6 0 -12 21 -13 48 -2 44
-1 45 11 23 l13 -23 6 23z"/>
<path d="M1040 988 c0 -19 2 -20 10 -8 13 19 13 30 0 30 -5 0 -10 -10 -10 -22z"/>
<path d="M1631 967 c-7 -31 -11 -63 -8 -70 2 -6 10 14 16 46 7 31 11 63 8 70
-2 6 -10 -14 -16 -46z"/>
<path d="M1080 741 c0 -17 5 -31 10 -31 6 0 10 11 10 24 0 14 -4 28 -10 31 -6
4 -10 -7 -10 -24z"/>
<path d="M1480 730 c0 -11 5 -20 10 -20 6 0 10 9 10 20 0 11 -4 20 -10 20 -5
0 -10 -9 -10 -20z"/>
<path d="M1250 600 c0 -11 5 -20 10 -20 6 0 10 9 10 20 0 11 -4 20 -10 20 -5
0 -10 -9 -10 -20z"/>
<path d="M1320 605 c0 -15 4 -24 10 -20 6 3 10 12 10 20 0 8 -4 17 -10 20 -6
4 -10 -5 -10 -20z"/>
</g>
</svg>
